<?xml version="1.0" standalone="no"?>
<!DOCTYPE svg PUBLIC "-//W3C//DTD SVG 20010904//EN"
 "http://www.w3.org/TR/2001/REC-SVG-20010904/DTD/svg10.dtd">
<svg version="1.0" xmlns="http://www.w3.org/2000/svg"
 width="512.000000pt" height="512.000000pt" viewBox="0 0 512.000000 512.000000"
 preserveAspectRatio="xMidYMid meet">
<metadata>
Created by potrace 1.14, written by Peter Selinger 2001-2017
</metadata>
<g transform="translate(0.000000,512.000000) scale(0.100000,-0.100000)"
fill="#000000" stroke="none">
<path d="M513 3985 c-76 -21 -116 -39 -165 -76 -45 -34 -118 -119 -118 -137 0
-6 -4 -12 -8 -14 -4 -1 -19 -32 -32 -68 l-25 -65 -2 -1045 c-3 -1123 -4 -1104
48 -1210 30 -61 133 -161 199 -193 126 -61 -10 -57 2152 -57 1427 0 1992 3
2030 11 173 37 304 167 352 349 13 47 15 210 13 1105 l-2 1050 -26 66 c-48
124 -149 221 -284 271 l-60 23 -2010 2 c-1700 1 -2018 0 -2062 -12z m4047
-325 c81 -41 75 50 77 -1087 3 -1043 3 -1039 -36 -1086 -41 -50 71 -47 -2040
-46 -1829 0 -1968 1 -2000 17 -19 9 -44 30 -55 45 -21 28 -21 30 -21 1045 0
559 3 1028 7 1041 10 32 37 61 73 77 25 11 384 13 1993 14 1945 0 1964 0 2002
-20z"/>
<path d="M800 3200 l0 -160 160 0 160 0 0 160 0 160 -160 0 -160 0 0 -160z"/>
<path d="M1440 3200 l0 -160 160 0 160 0 0 160 0 160 -160 0 -160 0 0 -160z"/>
<path d="M2080 3200 l0 -160 160 0 160 0 0 160 0 160 -160 0 -160 0 0 -160z"/>
<path d="M2720 3200 l0 -160 160 0 160 0 0 160 0 160 -160 0 -160 0 0 -160z"/>
<path d="M3360 3200 l0 -160 160 0 160 0 0 160 0 160 -160 0 -160 0 0 -160z"/>
<path d="M4000 3200 l0 -160 160 0 160 0 0 160 0 160 -160 0 -160 0 0 -160z"/>
<path d="M800 2560 l0 -160 160 0 160 0 0 160 0 160 -160 0 -160 0 0 -160z"/>
<path d="M1440 2560 l0 -160 160 0 160 0 0 160 0 160 -160 0 -160 0 0 -160z"/>
<path d="M2080 2560 l0 -160 160 0 160 0 0 160 0 160 -160 0 -160 0 0 -160z"/>
<path d="M2720 2560 l0 -160 160 0 160 0 0 160 0 160 -160 0 -160 0 0 -160z"/>
<path d="M3360 2560 l0 -160 160 0 160 0 0 160 0 160 -160 0 -160 0 0 -160z"/>
<path d="M4000 2560 l0 -160 160 0 160 0 0 160 0 160 -160 0 -160 0 0 -160z"/>
<path d="M800 1920 l0 -160 160 0 160 0 0 160 0 160 -160 0 -160 0 0 -160z"/>
<path d="M1440 1920 l0 -160 1120 0 1120 0 0 160 0 160 -1120 0 -1120 0 0
-160z"/>
<path d="M4000 1920 l0 -160 160 0 160 0 0 160 0 160 -160 0 -160 0 0 -160z"/>
</g>
</svg>
